<?xml version="1.0" encoding="UTF-8" standalone="no"?>
<!DOCTYPE svg PUBLIC "-//W3C//DTD SVG 1.1//EN" "http://www.w3.org/Graphics/SVG/1.1/DTD/svg11.dtd">
<svg width="100%" height="100%" viewBox="0 0 899 591" version="1.1" xmlns="http://www.w3.org/2000/svg"
     xmlns:xlink="http://www.w3.org/1999/xlink" xml:space="preserve" xmlns:serif="http://www.serif.com/"
     style="fill-rule:evenodd;clip-rule:evenodd;stroke-linejoin:round;stroke-miterlimit:2;">
    <g fill="currentColor" transform="matrix(1,0,0,1,-75.6859,-537.049)">
        <g transform="matrix(1.5218,0,0,1.5218,-38.9242,-306.808)">
            <g transform="matrix(315.988,0,0,315.988,52.0143,855.691)">
                <path d="M0.074,-0.716L0.488,-0.716C0.557,-0.716 0.61,-0.699 0.647,-0.665C0.684,-0.63 0.702,-0.588 0.702,-0.538C0.702,-0.495 0.689,-0.459 0.663,-0.429C0.645,-0.409 0.619,-0.393 0.585,-0.381C0.637,-0.368 0.675,-0.347 0.699,-0.317C0.723,-0.287 0.735,-0.249 0.735,-0.204C0.735,-0.167 0.727,-0.133 0.709,-0.104C0.692,-0.074 0.669,-0.05 0.639,-0.033C0.62,-0.022 0.592,-0.015 0.555,-0.01C0.505,-0.003 0.472,-0 0.456,-0L0.074,-0L0.074,-0.716ZM0.297,-0.435L0.393,-0.435C0.428,-0.435 0.452,-0.441 0.465,-0.453C0.479,-0.465 0.485,-0.482 0.485,-0.504C0.485,-0.525 0.479,-0.542 0.465,-0.553C0.452,-0.565 0.428,-0.571 0.395,-0.571L0.297,-0.571L0.297,-0.435ZM0.297,-0.154L0.41,-0.154C0.448,-0.154 0.475,-0.161 0.49,-0.174C0.506,-0.188 0.514,-0.206 0.514,-0.229C0.514,-0.25 0.506,-0.267 0.49,-0.28C0.475,-0.292 0.448,-0.299 0.409,-0.299L0.297,-0.299L0.297,-0.154Z"
                      style="fill-rule:nonzero;"/>
            </g>
            <g transform="matrix(315.988,0,0,315.988,297.8,855.691)">
                <rect x="0.082" y="-0.716" width="0.222" height="0.716" style="fill-rule:nonzero;"/>
            </g>
            <g transform="matrix(315.988,0,0,315.988,420.77,855.691)">
                <path d="M0.433,-0.259L0.433,-0.408L0.775,-0.408L0.775,-0.103C0.709,-0.058 0.652,-0.028 0.601,-0.012C0.551,0.004 0.491,0.012 0.422,0.012C0.337,0.012 0.268,-0.002 0.215,-0.031C0.161,-0.06 0.12,-0.103 0.09,-0.161C0.061,-0.218 0.046,-0.284 0.046,-0.358C0.046,-0.436 0.062,-0.504 0.094,-0.562C0.126,-0.62 0.174,-0.663 0.236,-0.693C0.284,-0.716 0.35,-0.728 0.432,-0.728C0.511,-0.728 0.57,-0.721 0.609,-0.707C0.648,-0.692 0.681,-0.67 0.707,-0.64C0.733,-0.61 0.752,-0.572 0.765,-0.525L0.552,-0.487C0.543,-0.514 0.528,-0.535 0.507,-0.549C0.486,-0.564 0.459,-0.571 0.427,-0.571C0.378,-0.571 0.34,-0.554 0.311,-0.52C0.282,-0.487 0.268,-0.433 0.268,-0.36C0.268,-0.283 0.282,-0.228 0.311,-0.194C0.34,-0.161 0.381,-0.145 0.433,-0.145C0.458,-0.145 0.481,-0.148 0.504,-0.155C0.526,-0.162 0.552,-0.175 0.581,-0.192L0.581,-0.259L0.433,-0.259Z"
                      style="fill-rule:nonzero;"/>
            </g>
        </g>
        <g transform="matrix(1.05879,0,0,1.02552,16.0838,-1.71589)">
            <g transform="matrix(99.5688,0,0,99.5688,87.2167,596.628)">
                <path d="M0.3,-0.716L0.3,-0.519L0.409,-0.519L0.409,-0.374L0.3,-0.374L0.3,-0.189C0.3,-0.167 0.302,-0.153 0.306,-0.146C0.313,-0.134 0.324,-0.129 0.34,-0.129C0.355,-0.129 0.375,-0.133 0.402,-0.142L0.417,-0.004C0.367,0.006 0.321,0.012 0.279,0.012C0.229,0.012 0.193,0.005 0.169,-0.007C0.146,-0.02 0.129,-0.039 0.117,-0.065C0.106,-0.091 0.101,-0.133 0.101,-0.191L0.101,-0.374L0.027,-0.374L0.027,-0.519L0.101,-0.519L0.101,-0.614L0.3,-0.716Z"
                      style="fill-rule:nonzero;"/>
            </g>
            <g transform="matrix(99.5688,0,0,99.5688,131.41,596.628)">
                <path d="M0.06,-0.716L0.259,-0.716L0.259,-0.452C0.286,-0.48 0.313,-0.5 0.339,-0.512C0.366,-0.524 0.398,-0.53 0.434,-0.53C0.488,-0.53 0.531,-0.514 0.562,-0.481C0.593,-0.448 0.608,-0.398 0.608,-0.33L0.608,-0L0.409,-0L0.409,-0.285C0.409,-0.318 0.403,-0.341 0.391,-0.354C0.379,-0.368 0.362,-0.375 0.34,-0.375C0.316,-0.375 0.296,-0.365 0.281,-0.347C0.266,-0.329 0.259,-0.296 0.259,-0.249L0.259,-0L0.06,-0L0.06,-0.716Z"
                      style="fill-rule:nonzero;"/>
            </g>
            <g transform="matrix(99.5688,0,0,99.5688,197.822,596.628)">
                <path d="M0.636,-0.21L0.237,-0.21C0.241,-0.178 0.25,-0.154 0.263,-0.139C0.282,-0.116 0.307,-0.105 0.338,-0.105C0.358,-0.105 0.376,-0.11 0.394,-0.12C0.405,-0.126 0.416,-0.137 0.429,-0.152L0.625,-0.134C0.595,-0.082 0.558,-0.045 0.516,-0.022C0.474,0 0.413,0.012 0.334,0.012C0.265,0.012 0.211,0.002 0.172,-0.017C0.132,-0.037 0.1,-0.067 0.074,-0.11C0.048,-0.152 0.035,-0.201 0.035,-0.258C0.035,-0.339 0.061,-0.405 0.113,-0.455C0.165,-0.505 0.237,-0.53 0.328,-0.53C0.402,-0.53 0.461,-0.519 0.504,-0.497C0.547,-0.474 0.58,-0.442 0.602,-0.399C0.625,-0.356 0.636,-0.301 0.636,-0.232L0.636,-0.21ZM0.434,-0.305C0.43,-0.344 0.419,-0.371 0.403,-0.388C0.386,-0.404 0.364,-0.413 0.336,-0.413C0.305,-0.413 0.28,-0.4 0.261,-0.375C0.249,-0.359 0.241,-0.336 0.238,-0.305L0.434,-0.305Z"
                      style="fill-rule:nonzero;"/>
            </g>
        </g>
        <g transform="matrix(1.31891,0,0,1.32748,-166.498,-359.878)">
            <g transform="matrix(80.6909,0,0,80.6909,558.443,1103.82)">
                <path d="M0.421,-0.519L0.607,-0.519L0.607,-0.029L0.607,-0.006C0.607,0.027 0.601,0.058 0.587,0.087C0.573,0.117 0.554,0.14 0.531,0.159C0.509,0.177 0.479,0.19 0.444,0.198C0.409,0.206 0.368,0.21 0.323,0.21C0.219,0.21 0.147,0.195 0.108,0.164C0.069,0.132 0.05,0.09 0.05,0.038C0.05,0.032 0.05,0.023 0.051,0.012L0.244,0.034C0.249,0.052 0.256,0.064 0.266,0.071C0.281,0.081 0.299,0.086 0.321,0.086C0.35,0.086 0.371,0.078 0.385,0.063C0.4,0.048 0.407,0.021 0.407,-0.017L0.407,-0.096C0.387,-0.073 0.368,-0.056 0.348,-0.045C0.318,-0.029 0.285,-0.021 0.249,-0.021C0.18,-0.021 0.124,-0.051 0.081,-0.112C0.051,-0.155 0.036,-0.212 0.036,-0.282C0.036,-0.363 0.055,-0.424 0.094,-0.467C0.133,-0.509 0.184,-0.53 0.248,-0.53C0.288,-0.53 0.321,-0.523 0.347,-0.51C0.374,-0.496 0.398,-0.473 0.421,-0.442L0.421,-0.519ZM0.234,-0.267C0.234,-0.23 0.242,-0.202 0.258,-0.184C0.274,-0.166 0.295,-0.157 0.321,-0.157C0.346,-0.157 0.366,-0.166 0.383,-0.185C0.4,-0.204 0.408,-0.232 0.408,-0.27C0.408,-0.307 0.399,-0.336 0.382,-0.356C0.364,-0.376 0.343,-0.386 0.317,-0.386C0.292,-0.386 0.272,-0.377 0.257,-0.359C0.241,-0.34 0.234,-0.31 0.234,-0.267Z"
                      style="fill-rule:nonzero;"/>
            </g>
            <g transform="matrix(80.6909,0,0,80.6909,612.263,1103.82)">
                <path d="M0.241,-0.351L0.051,-0.371C0.058,-0.404 0.069,-0.43 0.082,-0.449C0.096,-0.468 0.115,-0.485 0.141,-0.499C0.159,-0.509 0.184,-0.516 0.216,-0.522C0.248,-0.528 0.282,-0.53 0.319,-0.53C0.379,-0.53 0.427,-0.527 0.463,-0.52C0.499,-0.514 0.529,-0.5 0.553,-0.479C0.57,-0.464 0.583,-0.443 0.593,-0.416C0.603,-0.389 0.608,-0.364 0.608,-0.339L0.608,-0.11C0.608,-0.086 0.609,-0.067 0.613,-0.053C0.616,-0.039 0.622,-0.021 0.633,-0L0.446,-0C0.439,-0.013 0.434,-0.024 0.432,-0.031C0.429,-0.038 0.427,-0.049 0.425,-0.063C0.399,-0.038 0.373,-0.021 0.347,-0.01C0.312,0.005 0.271,0.012 0.225,0.012C0.163,0.012 0.116,-0.003 0.084,-0.031C0.052,-0.06 0.036,-0.095 0.036,-0.137C0.036,-0.177 0.047,-0.209 0.07,-0.234C0.093,-0.26 0.136,-0.279 0.198,-0.291C0.273,-0.306 0.321,-0.316 0.343,-0.323C0.365,-0.329 0.389,-0.336 0.414,-0.346C0.414,-0.371 0.409,-0.388 0.398,-0.397C0.388,-0.407 0.371,-0.412 0.345,-0.412C0.313,-0.412 0.288,-0.407 0.272,-0.396C0.259,-0.388 0.249,-0.373 0.241,-0.351ZM0.414,-0.246C0.386,-0.236 0.358,-0.228 0.328,-0.22C0.288,-0.209 0.262,-0.199 0.251,-0.188C0.24,-0.178 0.235,-0.166 0.235,-0.152C0.235,-0.136 0.24,-0.123 0.251,-0.114C0.262,-0.104 0.278,-0.099 0.299,-0.099C0.321,-0.099 0.342,-0.104 0.361,-0.115C0.38,-0.125 0.394,-0.139 0.402,-0.154C0.41,-0.17 0.414,-0.19 0.414,-0.214L0.414,-0.246Z"
                      style="fill-rule:nonzero;"/>
            </g>
            <g transform="matrix(80.6909,0,0,80.6909,666.083,1103.82)">
                <path d="M0.062,-0.519L0.247,-0.519L0.247,-0.443C0.274,-0.474 0.301,-0.497 0.328,-0.51C0.355,-0.524 0.388,-0.53 0.426,-0.53C0.468,-0.53 0.5,-0.523 0.524,-0.508C0.549,-0.494 0.568,-0.472 0.583,-0.443C0.615,-0.477 0.643,-0.5 0.669,-0.512C0.695,-0.524 0.726,-0.53 0.764,-0.53C0.82,-0.53 0.863,-0.514 0.895,-0.481C0.926,-0.448 0.941,-0.396 0.941,-0.326L0.941,-0L0.742,-0L0.742,-0.295C0.742,-0.319 0.738,-0.336 0.729,-0.348C0.715,-0.366 0.699,-0.375 0.679,-0.375C0.655,-0.375 0.636,-0.366 0.622,-0.349C0.608,-0.332 0.601,-0.305 0.601,-0.268L0.601,-0L0.401,-0L0.401,-0.286C0.401,-0.308 0.4,-0.324 0.397,-0.332C0.393,-0.345 0.386,-0.356 0.375,-0.364C0.365,-0.372 0.353,-0.375 0.339,-0.375C0.316,-0.375 0.297,-0.367 0.283,-0.35C0.268,-0.332 0.261,-0.304 0.261,-0.265L0.261,-0L0.062,-0L0.062,-0.519Z"
                      style="fill-rule:nonzero;"/>
            </g>
            <g transform="matrix(80.6909,0,0,80.6909,746.774,1103.82)">
                <path d="M0.636,-0.21L0.237,-0.21C0.241,-0.178 0.25,-0.154 0.263,-0.139C0.282,-0.116 0.307,-0.105 0.338,-0.105C0.358,-0.105 0.376,-0.11 0.394,-0.12C0.405,-0.126 0.416,-0.137 0.429,-0.152L0.625,-0.134C0.595,-0.082 0.558,-0.045 0.516,-0.022C0.474,0 0.413,0.012 0.334,0.012C0.265,0.012 0.211,0.002 0.172,-0.017C0.132,-0.037 0.1,-0.067 0.074,-0.11C0.048,-0.152 0.035,-0.201 0.035,-0.258C0.035,-0.339 0.061,-0.405 0.113,-0.455C0.165,-0.505 0.237,-0.53 0.328,-0.53C0.402,-0.53 0.461,-0.519 0.504,-0.497C0.547,-0.474 0.58,-0.442 0.602,-0.399C0.625,-0.356 0.636,-0.301 0.636,-0.232L0.636,-0.21ZM0.434,-0.305C0.43,-0.344 0.419,-0.371 0.403,-0.388C0.386,-0.404 0.364,-0.413 0.336,-0.413C0.305,-0.413 0.28,-0.4 0.261,-0.375C0.249,-0.359 0.241,-0.336 0.238,-0.305L0.434,-0.305Z"
                      style="fill-rule:nonzero;"/>
            </g>
        </g>
    </g>
</svg>
